<svg width="182" height="182" viewBox="0 0 182 182" fill="none" xmlns="http://www.w3.org/2000/svg">
<g clip-path="url(#clip0_727_133)">
<path d="M0 0H182V182H0V0Z" fill="#E8EFF8"/>
<path d="M25.1753 72.0968C24.7443 72.7179 24.4919 73.4453 24.4453 74.1999C24.3988 74.9545 24.56 75.7073 24.9113 76.3768C25.2626 77.0462 25.7907 77.6065 26.4381 77.9968C27.0856 78.3872 27.8276 78.5926 28.5836 78.5908H90.8772C91.65 78.5913 92.4075 78.3753 93.0638 77.9672C93.7201 77.5592 94.2489 76.9754 94.5904 76.2822C94.9319 75.5889 95.0723 74.8138 94.9958 74.0448C94.9192 73.2758 94.6288 72.5437 94.1574 71.9313L64.8182 33.7982C64.0242 32.7656 62.9976 31.9352 61.822 31.3744C60.6463 30.8136 59.3549 30.5383 58.0528 30.571C56.7507 30.6036 55.4747 30.9433 54.3287 31.5623C53.1826 32.1813 52.199 33.0622 51.4577 34.1332L25.1753 72.1009V72.0968Z" fill="#69CB91"/>
<path d="M59.9774 157.182C64.0516 157.182 68.0859 156.38 71.85 154.821C75.6141 153.262 79.0343 150.977 81.9153 148.097C84.7963 145.216 87.0816 141.796 88.6408 138.032C90.2 134.268 91.0025 130.234 91.0025 126.159C91.0025 122.085 90.2 118.051 88.6408 114.287C87.0816 110.523 84.7963 107.103 81.9153 104.222C79.0343 101.341 75.6141 99.0564 71.85 97.4975C68.0859 95.9386 64.0516 95.1364 59.9774 95.1367C51.7501 95.1373 43.8599 98.4061 38.0425 104.224C32.2252 110.042 28.957 117.932 28.957 126.159C28.957 134.387 32.2252 142.277 38.0425 148.095C43.8599 153.913 51.7501 157.182 59.9774 157.182Z" fill="#247ADE"/>
<path d="M161.316 33.0914C161.316 32.5482 161.209 32.0104 161.002 31.5085C160.794 31.0067 160.489 30.5507 160.105 30.1666C159.721 29.7825 159.265 29.4778 158.763 29.2699C158.261 29.0621 157.723 28.9551 157.18 28.9551H119.953C118.856 28.9551 117.804 29.3909 117.028 30.1666C116.252 30.9423 115.816 31.9944 115.816 33.0914V153.046C115.816 154.143 116.252 155.195 117.028 155.971C117.804 156.747 118.856 157.182 119.953 157.182H157.18C157.723 157.182 158.261 157.075 158.763 156.867C159.265 156.66 159.721 156.355 160.105 155.971C160.489 155.587 160.794 155.131 161.002 154.629C161.209 154.127 161.316 153.589 161.316 153.046V33.0914Z" fill="#A0BFF7"/>
</g>
<defs>
<clipPath id="clip0_727_133">
<rect width="182" height="182" rx="91" fill="white"/>
</clipPath>
</defs>
</svg>
