<svg viewBox="0 0 1024 1024" xmlns="http://www.w3.org/2000/svg">
  <path d="M850.027 199.68c-0.726-5.163-5.12-8.107-8.811-8.107s-82.219-5.866-82.219-5.866-54.314-54.315-60.906-60.182c-5.888-5.866-17.622-4.416-22.038-2.944-0.725 0-11.733 3.67-30.826 9.558C626.88 78.549 594.58 30.1 538.048 30.1h-5.12C517.504 9.536 496.96 0 480.064 0 347.947 0 284.821 165.163 265.003 248.853c-51.414 16.15-88.107 27.158-92.502 28.608-28.629 8.811-29.354 9.558-33.024 36.694-2.944 20.565-77.824 600.49-77.824 600.49L645.227 1024 961.6 955.733c0-0.725-110.827-750.933-111.573-756.053z m-237.099-58.773a1690.027 1690.027 0 0 0-49.173 15.424v-11.008c0-32.299-4.416-58.731-11.734-80 29.355 4.394 48.427 37.418 60.907 75.584zM515.307 72.64c8.064 20.565 13.226 49.195 13.226 88.832v5.867c-32.32 10.282-66.816 20.565-102.058 31.573 19.84-75.605 57.258-112.32 88.832-126.272z m-38.934-37.397c5.867 0 11.734 2.197 16.896 5.866-42.581 19.819-87.36 69.739-106.453 170.304-27.883 8.811-55.04 16.875-80.747 24.96 22.038-76.352 75.606-201.13 170.304-201.13z" fill="#95BF47"/>
  <path d="M841.216 190.848c-3.67 0-82.219-5.867-82.219-5.867s-54.314-54.314-60.906-60.202a11.797 11.797 0 0 0-8.086-3.67L645.973 1024l316.374-68.267S851.499 204.8 850.773 199.68a12.715 12.715 0 0 0-9.557-8.832z" fill="#5E8E3E"/>
  <path d="M538.07 365.547l-38.913 115.989s-34.496-18.347-76.352-18.347c-61.653 0-64.597 38.891-64.597 48.427 0 52.864 138.027 73.43 138.027 197.483 0 97.621-61.675 160.746-145.366 160.746-100.565 0-151.21-62.4-151.21-62.4l27.157-88.81s52.864 45.504 96.896 45.504c29.376 0 41.11-22.742 41.11-39.638 0-68.992-113.046-71.936-113.046-185.706 0-95.424 68.267-187.926 206.997-187.926 52.864-0.725 79.296 14.678 79.296 14.678z" fill="#FFFFFF"/>
</svg>
